<svg xmlns="http://www.w3.org/2000/svg" xmlns:xlink="http://www.w3.org/1999/xlink" viewBox="0 0 344.16 373.68"><defs><clipPath id="clip-path"><path d="M0,172.08A172.08,172.08,0,1,1,172.08,344.16,172.08,172.08,0,0,1,0,172.08Z" fill="#2264ae"/></clipPath></defs><title>Asset 49</title><g style="isolation:isolate"><g id="Layer_2" data-name="Layer 2"><g id="Capa_1" data-name="Capa 1"><path d="M0,172.08A172.08,172.08,0,1,1,172.08,344.16,172.08,172.08,0,0,1,0,172.08Z" fill="#2264ae"/><g clip-path="url(#clip-path)"><path d="M236.4,184.18c-15.67,47.17-90.7,72-101.21,72-10.76,0-28.58-37.24-32.45-59.95-4.76-27.91-8.92-35.9-12.15-56.36-1.85-11.76-7.85-59.18.39-71.7,12.94-19.66,37.15-33.47,77.61-33.47,15.31,0,36.84-.51,39.41,9.67,20.68-.72,31.16,10,36.27,19.2,7.45,13.41,10.21,32.2,8.3,50.07C250.05,137.28,247.57,150.58,236.4,184.18Z" fill="#683c11"/><path d="M91.88,373.68h83.68V245.57c-4.21-.08-7.12,0-7.88,0-2.35-.08-24.82-.59-44,4-20.38,4.89-37.37,15.48-37.37,15.48s9.58,20,15,59.61C103.78,342.82,92.2,363.86,91.88,373.68Z" fill="#f9bb8d"/><path d="M253.81,373.68c0-9.77-12.39-32.42-10.8-49,3.75-39.2,16.93-59.61,16.93-59.61s-17-10.59-37.36-15.48c-19.19-4.61-41.66-4.1-44-4-.77,0-3.68-.1-7.89,0V373.68Z" fill="#f9bb8d"/><path d="M107.73,152.34s2.37-18.13-14.53-13.81c-13,3.34.62,37.05,9.22,40,7.37,2.51,8.92-2.71,8.92-2.71Z" fill="#f9bb8d"/><path d="M233.2,152.26s-2.64-18.16,14.33-13.61c13,3.5-.09,37-8.67,39.86-7.32,2.41-9-2.83-9-2.83Z" fill="#f9bb8d"/><path d="M171.77,281s34.87-32.46,32.78-34c-12.14-9.08-11.42-34.57-11.42-34.57l-43.95-3.13s2.78,36.61-10.24,41.14C138,250.78,171.77,281,171.77,281Z" fill="#f9bb8d"/><path d="M147.3,238a18.25,18.25,0,0,1,8.93,5.23c11.72,11.9,28.88,6.4,39.84-4.09a19.67,19.67,0,0,1,1.58-1.36c-4.92-11-4.52-25.34-4.52-25.34l-43.95-3.13S150.41,225.78,147.3,238Z" fill="#e7dcd6" style="mix-blend-mode:multiply"/><path d="M234.74,156.58c-2.69,21.43-4.69,32.85-15.12,49C202.25,232.4,171.5,241.4,171.5,241.4s-32.81-7.88-50.66-35.86c-10.12-15.84-11.8-29.51-14.55-49-3.29-23.38-3.55-15.12-3.55-37.18,0-44.91,16.23-77.34,63.39-77.34s71.26,28.22,72,74.32C238.5,141.64,237.69,133.08,234.74,156.58Z" fill="#f9bb8d"/><path d="M140.68,123.37c8.92-.27,32.54-7.56,39.12-15.23,5.83-6.79,15.55-20.54,25.18-20.54,1.16,34,21.41,27.71,24.93,45.65,1,4.82,3.52,18.35,4.83,23.33,2.48-2.53,3.43-18.4,3.46-18.66,3.16-23.49,4.91,3.72,4.49-21.54-.77-46.1-25-77.39-75.43-77.39S98.15,74.49,98.15,119.4c0,21,5.07,17.56,8.14,37.18C110.6,147.48,131.22,123.65,140.68,123.37Z" fill="#e7dcd6" style="mix-blend-mode:multiply"/><path d="M199.9,82.93c25.59.33,12.7,33.38,22.29,36.34,14.89,7.16,12.71,38.1,12.82,37.31,3.15-23.5,11-14.32,10.54-39.58-.77-46.1-27.9-78-78.29-78s-71.6,35.48-71.6,80.39c0,22.06,8.92,28.73,10.38,37.2C116.5,100.2,160.09,139.37,199.9,82.93Z" fill="#683c11"/><path d="M90.11,373.68C96.92,345.51,104,318.23,104,318.23s6.55-58.93-17.72-53.14c-16.73,4-25.95,65.19-31,108.59Z" fill="#f9bb8d"/><path d="M255.21,373.68H290c-5.07-43.4-14.29-104.59-31-108.59-24.27-5.79-17.72,53.14-17.72,53.14S248.4,345.51,255.21,373.68Z" fill="#f9bb8d"/><path d="M116.32,137.51s2.93-2.3,10.76-4.3c9.09-2.33,21.11,1.55,21.58,1.55.84,0,2.06-.23,2.06-2.52s-1-2.26-1.83-2.26c-.47,0-13-2.45-22,.38A21.89,21.89,0,0,0,116.32,137.51Z" fill="#683c11"/><path d="M121.37,147.41a13.82,13.82,0,0,0,4,6.94c2.54,2.4,18.06,4,19.69,3.29,2.45-1.1,5.63-6.34,5.63-6.34s-5.45-7.51-12.2-7.51S121.37,147.41,121.37,147.41Z" fill="#fff"/><path d="M138.52,145.26c-4.86,0-11,2.24-14.41,3.29-.78.24-1,2.54.29,4.75-2.77-2.54-4.76-7.58-4.76-7.58s3.32,1.17,4.4.83c3.25-1,9.44-2.76,14.48-2.76,6.75,0,12.2,7.51,12.2,7.51a2.72,2.72,0,0,1-.78,1.21C148.74,151,144.37,145.26,138.52,145.26Z" fill="#432918"/><path d="M131.09,150.62a6.84,6.84,0,1,0,6.83-6.83A6.83,6.83,0,0,0,131.09,150.62Z" fill="#432918"/><path d="M132.07,150.63c0,2.89,8.12-5.23,5.23-5.23A5.23,5.23,0,0,0,132.07,150.63Z" fill="#fff"/><polygon points="170.62 175.5 164.49 170.65 170.85 155.06 170.62 175.5" fill="#e09d72"/><path d="M170.61,210.12c-12.46,0-17.26-13.19-17.26-13.19a6.85,6.85,0,0,0,3.6.07c3.3-1.09,7.66-3.79,8.77-4.1,1.65-.47,4.9,1.84,4.9,1.84s2.84-2.26,4.2-1.84c.92.28,5.15,2.42,8.72,3.51a17.61,17.61,0,0,0,4.35.52S182.22,210.12,170.61,210.12Z" fill="#d84b58"/><path d="M170.46,203.48c-10.2,0-15.43-5.6-15.43-5.6a98.09,98.09,0,0,0,15.59,1.24,94,94,0,0,0,16-1.43A26.06,26.06,0,0,1,170.46,203.48Z" fill="#fff"/><path d="M153.4,173.37c0,6-7.55,10.81-16.88,10.81s-16.88-4.83-16.88-10.81,7.56-10.81,16.88-10.81S153.4,167.4,153.4,173.37Z" fill="#f08375" opacity="0.2"/><path d="M222.19,137.51s-2.94-2.3-10.77-4.3c-9.08-2.33-21.11,1.55-21.59,1.55-.83,0-2.05-.23-2.05-2.52s1-2.26,1.83-2.26c.46,0,13-2.45,22,.38A22,22,0,0,1,222.19,137.51Z" fill="#683c11"/><path d="M217.14,147.41a13.89,13.89,0,0,1-4,6.94c-2.54,2.4-18,4-19.7,3.29-2.44-1.1-5.62-6.34-5.62-6.34s5.46-7.51,12.2-7.51S217.14,147.41,217.14,147.41Z" fill="#fff"/><path d="M200,145.26c4.87,0,11,2.24,14.42,3.29.77.24,1,2.54-.3,4.75,2.77-2.54,4.76-7.58,4.76-7.58s-3.32,1.17-4.4.83c-3.25-1-9.43-2.76-14.48-2.76-6.74,0-12.2,7.51-12.2,7.51a2.69,2.69,0,0,0,.79,1.21C189.77,151,194.14,145.26,200,145.26Z" fill="#432918"/><path d="M207.42,150.62a6.84,6.84,0,1,1-6.84-6.83A6.84,6.84,0,0,1,207.42,150.62Z" fill="#432918"/><path d="M206.44,150.63c0,2.89-8.13-5.23-5.24-5.23A5.23,5.23,0,0,1,206.44,150.63Z" fill="#fff"/><path d="M185.1,173.37c0,6,7.56,10.81,16.88,10.81s16.88-4.83,16.88-10.81S211.3,162.56,202,162.56,185.1,167.4,185.1,173.37Z" fill="#f08375" opacity="0.2"/><path d="M158.75,121c7.77-1.5,12.63-8.67,18.05-13.78,6.72-6.36,13.5-13.6,15.67-22.86a.72.72,0,0,0-1.31-.55c-4.67,7.64-9,14.81-15.36,21.25-5.14,5.22-10,13.29-17.08,15.85-.06,0,0,.1,0,.09Z" fill="#683c11"/><path d="M141,125.12c9.06-.83,16.47-7.1,22.13-13.84,5.86-7,12.17-15.66,14.57-24.54.15-.57-.63-1.1-1-.61-5.34,6.24-8.79,14-13.76,20.53C157.2,114.23,150.38,122.07,141,125c0,0,0,.1,0,.1Z" fill="#683c11"/><path d="M261,112.34c-4.75-2.49-7.25-6.63-8.58-11.68-1-3.86-.76-8.15-2.18-11.85a.58.58,0,0,0-1.11,0c-1.58,4.35-.1,10.71,1.75,14.79,2,4.5,5.13,7.86,10,9,.15,0,.26-.18.11-.26Z" fill="#683c11"/><path d="M263.93,94.9c-5.7.78-8.47-3.08-10.89-7.79a47.37,47.37,0,0,1-2.87-6.67c-.5-1.48-.89-3.12-2.06-4.22a.67.67,0,0,0-1.05.14c-1.2,2-.11,4.63.62,6.62a31.2,31.2,0,0,0,4.61,8.7c2.49,3.2,8.07,7.87,11.84,3.56a.2.2,0,0,0-.2-.34Z" fill="#683c11"/><path d="M81.45,122.48c5.11-1.26,6.51-8,7.09-12.44.9-6.86.9-13.84,1.08-20.74a.72.72,0,0,0-1.34-.36c-5.6,9.73,2.87,25.33-7,33.3-.12.1,0,.27.14.24Z" fill="#683c11"/><path d="M80.78,109.48c4.27-2.69,6.39-6.76,7.78-11.5,1.3-4.41,3-10.86,1.24-15.31a.58.58,0,0,0-1-.14c-1.94,3.17-1.62,7.62-2,11.2-.6,5.57-2,11.5-6.08,15.6-.07.07,0,.21.12.15Z" fill="#683c11"/><path d="M224.23,134.63c1.69-4.65-1.45-9-3.3-13.12-3.78-8.35-.49-15.94.48-24.37a.34.34,0,0,0-.57-.24c-4.19,5-5,12.92-3.94,19.22s7.92,12.12,7.14,18.48c0,.12.15.12.19,0Z" fill="#683c11"/><path d="M231,169.76c2.51-3,3.47-6.38,3.87-10.21a151.42,151.42,0,0,1,2.67-17.09c1.51-6.9,1.48-19.93-7.15-22.33a.53.53,0,0,0-.65.65c1.32,3.74,4,6.59,4.86,10.62a32.23,32.23,0,0,1-.53,13.75c-1.74,7.9.76,17.24-3.22,24.49-.05.1.07.21.15.12Z" fill="#683c11"/><path d="M110.75,172.77c.75-3-.36-6.07-1.14-8.93-1.48-5.35-1.19-9.79.26-15.11a34.22,34.22,0,0,0,1.57-12c-.4-5.05-1.83-10-2.16-15a1,1,0,0,0-1.78-.48c-2.43,3.48-2.62,7-2.07,11.11.42,3.12,1.16,6.24,1,9.41A66,66,0,0,1,105,150c-1.52,8.27,2,15.57,5.7,22.83a0,0,0,0,0,.09,0Z" fill="#683c11"/><path d="M93,361.74a236,236,0,0,0,11-43.51s6.55-58.93-17.72-53.14C73.44,268.17,62,307.4,59.5,341.72,59,348.53,93,361.74,93,361.74Z" fill="#259dab"/><path d="M252.3,361.74s34-10.89,34-16.53c0-38.83-14.05-76.94-27.32-80.12-24.27-5.79-17.72,53.14-17.72,53.14A254,254,0,0,0,252.3,361.74Z" fill="#259dab"/><path d="M91.88,373.68H253.81c0-9.77-12.39-32.42-10.8-49,3.75-39.2,16.93-59.61,16.93-59.61s-17-10.59-37.36-15.48c-1.15,23.56-8.34,65.49-49.45,65.49s-47.76-41.42-49.45-65.49c-20.38,4.89-37.37,15.48-37.37,15.48s9.58,20,15,59.61C103.78,342.82,92.2,363.86,91.88,373.68Z" fill="#259dab"/><path d="M91.88,373.68h52.4V288.83c-7.76-7.38-19.43-22.5-20.6-39.22-20.38,4.89-37.37,15.48-37.37,15.48s9.58,20,15,59.61C103.78,342.82,92.2,363.86,91.88,373.68Z" fill="#352e35"/><path d="M253.81,373.68c0-9.77-12.39-32.42-10.8-49,3.75-39.2,16.93-59.61,16.93-59.61s-17-10.59-37.36-15.48c-.77,15.85-7.27,27.31-19,37.77v86.3Z" fill="#352e35"/><path d="M125.85,308.3c-2.72,5.66-14.52,9.64-25.77,4.25s-18.75-18.74-16-24.4,14.62-1.47,25.87,3.92S128.56,302.65,125.85,308.3Z" fill="#683c11"/><path d="M126.41,293.35c-2.72,5.65-15.08,9.82-26.33,4.42s-17.64-18-14.92-23.64,13.5-2.23,24.75,3.16S129.12,287.69,126.41,293.35Z" fill="#683c11"/><path d="M128.31,278.69c-2.71,5.65-14.59,8.35-25.84,2.95S86.19,265.06,88.9,259.41s12.15-3.64,23.4,1.76S131,273,128.31,278.69Z" fill="#683c11"/><path d="M132.06,266.43c-2.71,5.66-15.22,9.18-26.47,3.78s-15.44-20-12.72-25.66,11.31-.21,22.56,5.18S134.78,260.78,132.06,266.43Z" fill="#683c11"/><path d="M138.94,250.45c-2.71,5.66-17.25,11.13-28.49,5.74s-15.45-20-12.73-25.67,11.32-.21,22.56,5.19S141.66,244.8,138.94,250.45Z" fill="#683c11"/><path d="M140.78,240.28c-2.72,5.66-14,5.86-25.28.46S103.09,229,104,222.83c2-13.52,10.09-8,21.34-2.56S143.49,234.63,140.78,240.28Z" fill="#683c11"/><path d="M123,321.94c-2.72,5.66-14.43,10.16-25.67,4.76S80.23,308,82.94,302.31s13-1.48,24.25,3.91S125.74,316.29,123,321.94Z" fill="#683c11"/><path d="M120.11,336.11c-2.6,5.42-15.23,11.42-25,6.72S79.69,325.47,82.29,320s12.46-1.52,22.23,3.17S122.72,330.69,120.11,336.11Z" fill="#683c11"/><path d="M108.18,373s-1.2-9.31-8.37-15.64c-11-9.76-20.3-11.39-17.69-16.81s19.85-9,26.4-.35C118.13,352.92,108.18,373,108.18,373Z" fill="#683c11"/><path d="M114.14,373.68c-2.1-4.16-5.16-7.32-7.74-7.72-3.49-.53-4.54,2.47-6.05,7.72Z" fill="#683c11"/><path d="M107.38,365.9a6.52,6.52,0,1,0,6.52-6.51A6.52,6.52,0,0,0,107.38,365.9Z" fill="#b53e60"/><path d="M97.48,365.9a6.52,6.52,0,1,0,6.51-6.51A6.52,6.52,0,0,0,97.48,365.9Z" fill="#b53e60"/></g></g></g></g></svg>