<svg xmlns="http://www.w3.org/2000/svg" viewBox="0 0 301 231.67"><title>Asset 1</title><g id="Layer_2" data-name="Layer 2"><g id="OBJECTS"><path d="M104.11,147.73s-20.54,9.62-25.63,9.49c-1,.34-26.72-13.8-32.33-18h0l-.78-.58c-1.32-1-3.91-3.07-4.38-4.38a31.93,31.93,0,0,0-5.27-8.15c-2-2.13-2.91-8.23-3.5-9.61s-4.28,1.37-2.71,5.63S32,129,31.44,130s-10.82-.3-13.27-1.65-9.88-6-13.75-3.86C2,125.54,3,126.81,3,126.81s6.77,1.53,7.75,2.29c-5-1.29-10.69-2.65-10.7,1.45,0,.67,2.28.8,3.45,1a47.2,47.2,0,0,1,5.12,1.17c-2.41-.17-7.7-1.47-8.27,2.69.06.83,1.14.72,2.21.66,1.51-.08,8.28.3,9.34.9-3.44-.14-8.77.33-8.08,3.3.18.65,2.27-.08,4.47-.26s8.4,2.05,12.91,4.59S35,146.2,37.46,146.3c3.06.12,5.67,2.73,6.57,3.73,1,1.16,2,2.45,3.16,3.93,6.54,8.57,29.2,18,31.57,18.37s29.05-7.53,32.78-13.82S104.11,147.73,104.11,147.73Z" fill="#eaaf92"/><path d="M104.11,147.73s-20.26,8.82-25.63,9.49c-1,.34-26.72-13.8-32.33-18h0l-.78-.58c-.62-.47-1.53-1.18-2.36-1.94a13.9,13.9,0,0,1-3.12,6.54c1.57-3.87,1.78-5.54,1.59-8.17a3.49,3.49,0,0,1-.49-.81,31.93,31.93,0,0,0-5.27-8.15c-2-2.13-2.91-8.23-3.5-9.61s-2.74,1.81-1.17,6.07,1.53,7.21.93,8.22c-.06.1-.24.17-.5.21a11.8,11.8,0,0,0-.79,9.84C28.84,138.11,27.47,134,29,131c-3.54-.39-9.14-1.68-10.82-2.61-2.45-1.35-9.39-5-12.79-3.1-2.46,1-.08,1.71-.08,1.71s9.35,3,10.33,3.75c-5-1.29-13.12-5-14.32-.94,0,.67,1,.73,2.18.95s10,2.78,10.35,3c-2.4-.17-11.79-3.16-12.36,1,.06.82.7,1,1.67.88,3.47-.38,10.94,1.29,12,1.88-3.89-.91-11.63-1-10.95,2,.14.7,1.77-.21,4-.13a26.25,26.25,0,0,1,13.12,3.85c4.52,2.54,13.77,1.07,16.27,1.17,3.06.12,6.84,4,7.74,5,1,1.16,2,2.46,3.16,3.93,6.54,8.58,27.91,18.66,30.28,19.06s29.05-7.53,32.78-13.82S104.11,147.73,104.11,147.73Z" fill="#f0bda0"/><path d="M20.42,136.28c.08-.38.16-.75.25-1.13a8.73,8.73,0,0,1,.33-1.06,7.15,7.15,0,0,1,.39-1l.42-.83a5.17,5.17,0,0,1,.43-.67,3.72,3.72,0,0,1,.36-.48,2.82,2.82,0,0,1,.37-.39,5,5,0,0,0-.3.44,3.88,3.88,0,0,0-.29.52c-.1.21-.24.43-.35.69s-.22.55-.35.85-.19.64-.31,1a10.72,10.72,0,0,0-.29,1c-.08.36-.15.73-.23,1.1a7.06,7.06,0,0,0-.18,1.12c0,.37-.09.73-.13,1.09s-.09.69-.12,1,0,.63,0,.92c0,1.14-.11,1.91-.11,1.91s-.08-.76-.14-1.92c0-.28,0-.6,0-.93s0-.68.06-1,.05-.73.09-1.11" fill="#eaaf92"/><path d="M93.85,152.06s-12,4-14.45,4.3-30.58-18.45-35.32-20.22c-.66,5.63-5.73,11.58-6.17,11.58,3.53,1.88,13.56,12,19.4,16.54s18.12,9.18,22,8.86S99.14,167,99.14,167Z" fill="#fff"/><path d="M79.29,169c-3.86.33-16.13-4.33-22-8.86-4.87-3.76-12.64-11.42-17.14-15a10.36,10.36,0,0,1-2.26,2.59c3.53,1.88,13.56,12,19.4,16.54s18.12,9.18,22,8.86S99.14,167,99.14,167l-1.31-3.7C93.93,164.65,82.48,168.68,79.29,169Z" fill="#eaeaea"/><path d="M153.33,129.63H134.66s-16.66,6.21-21,8.28c-5.45,2.63-16.31,8.18-28.9,13.81,8.45,8.45,15.72,25.86,15.72,25.86s10.26-6.6,14.16-6.6c3.25,3.58,2.67,24-.39,39.91-3.31,17.25,15.06,18.56,15.06,18.56s5.23,1,18.88,2.15c1.85.15,4.65-.3,6.21-.15Z" fill="#054068"/><path d="M153.33,129.63H134.66s-16.66,6.21-21,8.28c-5.45,2.63-16.31,8.18-28.9,13.81,8.45,8.45,15.72,25.86,15.72,25.86s10.26-6.6,14.16-6.6a5.4,5.4,0,0,1,2.16-.34,25.32,25.32,0,0,0-.8-22.25c4.14,7,6.11,15.41,3.61,23.64,4.32,4.5,4.42,19.06,2.06,31.36-3.31,17.25,2.55,20.89,8.71,23.75,4.3,2,4.16,1.51,17.81,2.64,1.85.16,4.65-.3,6.21-.14Z" fill="#094d84"/><path d="M139.64,147.62c3.57-6,6-13,11.65-18H134.66s-16.13,5.6-21,8.28c-4.18,2.32-16.92,8.46-28.9,13.81a59.08,59.08,0,0,1,6.35,8c.29-.59,29.17-14.3,43.51-22C135.91,141.39,138.4,143.88,139.64,147.62Z" fill="#054068"/><path d="M196.9,147.73s20.53,9.62,25.62,9.49c1,.34,26.72-13.8,32.33-18h0l.79-.58c1.32-1,3.9-3.07,4.37-4.38a32,32,0,0,1,5.28-8.15c2-2.13,2.9-8.23,3.49-9.61s4.28,1.37,2.71,5.63S269,129,269.57,130s10.81-.3,13.26-1.65,9.88-6,13.75-3.86c2.47,1,1.48,2.31,1.48,2.31s-6.78,1.53-7.75,2.29c5-1.29,10.68-2.65,10.69,1.45,0,.67-2.27.8-3.44,1a46.1,46.1,0,0,0-5.12,1.17c2.4-.17,7.7-1.47,8.26,2.69-.05.83-1.14.72-2.21.66-1.5-.08-8.27.3-9.34.9,3.44-.14,8.77.33,8.09,3.3-.19.65-2.27-.08-4.48-.26s-8.39,2.05-12.91,4.59-13.8,1.58-16.3,1.68c-3.06.12-5.68,2.73-6.58,3.73-1,1.16-2,2.45-3.16,3.93-6.54,8.57-29.19,18-31.56,18.37s-29.06-7.53-32.79-13.82S196.9,147.73,196.9,147.73Z" fill="#eaaf92"/><path d="M196.9,147.73s20.25,8.82,25.62,9.49c1,.34,26.72-13.8,32.33-18h0l.79-.58c.62-.47,1.52-1.18,2.35-1.94a14,14,0,0,0,3.13,6.54c-1.57-3.87-1.78-5.54-1.59-8.17a3.79,3.79,0,0,0,.48-.81,32,32,0,0,1,5.28-8.15c2-2.13,2.9-8.23,3.49-9.61s2.74,1.81,1.17,6.07-1.53,7.21-.93,8.22a.76.76,0,0,0,.51.21,11.83,11.83,0,0,1,.78,9.84c1.85-2.77,3.22-6.85,1.71-9.91,3.54-.39,9.13-1.68,10.81-2.61,2.45-1.35,9.4-5,12.79-3.1,2.46,1,.08,1.71.08,1.71s-9.35,3-10.32,3.75c5-1.29,13.11-5,14.31-.94,0,.67-1,.73-2.17.95s-10,2.78-10.36,3c2.41-.17,11.8-3.16,12.36,1,0,.82-.7,1-1.67.88-3.47-.38-10.94,1.29-12,1.88,3.9-.91,11.64-1,10.95,2-.14.7-1.77-.21-4-.13a26.32,26.32,0,0,0-13.13,3.85c-4.52,2.54-13.77,1.07-16.26,1.17-3.06.12-6.85,4-7.75,5-1,1.16-2,2.46-3.16,3.93-6.54,8.58-27.9,18.66-30.27,19.06s-29.06-7.53-32.79-13.82S196.9,147.73,196.9,147.73Z" fill="#f0bda0"/><path d="M280.58,136.28l-.24-1.13a18.18,18.18,0,0,0-.72-2l-.43-.83a6.53,6.53,0,0,0-.42-.67,3,3,0,0,0-.37-.48,2.51,2.51,0,0,0-.36-.39,4.05,4.05,0,0,1,.29.44,3,3,0,0,1,.3.52c.1.21.24.43.34.69l.35.85a34,34,0,0,1,.61,2c.07.36.15.73.22,1.1a7.08,7.08,0,0,1,.19,1.12l.12,1.09c0,.35.1.69.12,1s0,.63,0,.92c0,1.14.1,1.91.1,1.91s.08-.76.15-1.92c0-.28,0-.6,0-.93s0-.68,0-1-.06-.73-.09-1.11" fill="#eaaf92"/><path d="M207.16,152.06s12,4,14.44,4.3,30.58-18.45,35.32-20.22c.66,5.63,5.74,11.58,6.18,11.58-3.53,1.88-13.57,12-19.41,16.54s-18.12,9.18-22,8.86S201.86,167,201.86,167Z" fill="#fff"/><path d="M260.85,145.15c-4.31,3.15-12.8,11.59-18,15.61-5.85,4.52-18.12,9.18-22,8.86-3-.26-13.69-4-18-5.51l-1,2.84s16,5.84,19.85,6.17,16.14-4.34,22-8.86,15.88-14.66,19.41-16.54A10.12,10.12,0,0,1,260.85,145.15Z" fill="#eaeaea"/><path d="M147.67,129.63h18.67s16.66,6.21,21,8.28c5.45,2.63,16.31,8.18,28.89,13.81-8.45,8.45-15.71,25.86-15.71,25.86s-11.79-6.12-14.27-6.64c-3.25,3.57-8.09,17.13-2.18,35.62,5.63,17.58-12.5,22.19-12.5,22.19s-5.11,1.71-18.76,2.85a38.07,38.07,0,0,1-5.56-.09Z" fill="#054068"/><path d="M200.49,177.58s7.26-17.41,15.71-25.86c-12.58-5.63-23.44-11.18-28.89-13.81-4.31-2.07-21-8.28-21-8.28H147.67l-.45,100a36.73,36.73,0,0,0,5.56.08c13.65-1.13,18.76-2.84,18.76-2.84s12.88-2.43,7.25-20c-5.25-16.44-1-32.68,5.09-35.53-.92-7.61-.43-15.08,4.16-22A30.68,30.68,0,0,0,186,170.93h.26C188.7,171.46,200.49,177.58,200.49,177.58Z" fill="#094d84"/><path d="M161.36,147.62c-3.57-6-6-13-11.65-18h16.63s16.14,5.6,21,8.28c4.18,2.32,16.91,8.46,28.89,13.81a60,60,0,0,0-6.35,8c-.29-.59-29.16-14.3-43.51-22C165.1,141.39,162.61,143.88,161.36,147.62Z" fill="#054068"/><rect x="147.34" y="135.19" width="4.49" height="95.89" fill="#054068"/><polygon points="134.9 118.85 134.9 128.78 149.77 135.56 164.27 127.31 164.27 119.1 134.9 118.85" fill="#eaaf92"/><path d="M134.29,123.29l15.48,11.94c-3.41,2.93-7.92,11.46-7.73,14.63-2.87-7.68-8.48-17.79-10.06-18.77A79.85,79.85,0,0,1,134.29,123.29Z" fill="#0864a3"/><path d="M164.88,123.29l-15.47,11.94c3.41,2.93,7.92,11.46,7.74,14.63,2.86-7.68,8.47-17.79,10-18.77A78,78,0,0,0,164.88,123.29Z" fill="#0864a3"/><path d="M189.75,82s1-14,7.15-14.5,8.69,11.73,3.45,18.88-9.3,15.6-14.5,6A11.35,11.35,0,0,1,189.75,82Z" fill="#f0bda0"/><path d="M110.43,82s-1-14-7.15-14.5S94.59,79.2,99.83,86.35s9.3,15.6,14.5,6A11.35,11.35,0,0,0,110.43,82Z" fill="#eaaf92"/><path d="M105.08,57.34s3.24,37.8,11.34,47.52,22,19.24,34.11,18.43,26.14-8.23,32.05-15.73c4.86-6.16,11.88-40,11.88-58.59s-7.09-24.21-27.88-25.83S107,3.6,105.08,57.34Z" fill="#f0bda0"/><path d="M118,97.39c-5-17-6-41,9-45,19.1-4.78,44.51,9,57.88-22.38-4.39-3.68-8.26-6.08-18.34-6.87C145.79,21.52,107,3.6,105.08,57.34c0,0,3.24,37.8,11.34,47.52s22,19.24,34.11,18.43c.49,0,1-.09,1.5-.15C136.57,121.13,122.77,112.75,118,97.39Z" fill="#eaaf92"/><path d="M160.78,60.8c2.5-3.37,9.13-5.3,16.19-4.36s6.82,6.85,6.78,8.71c-1.69-4-4.19-6.53-9.17-5.29s-10.89,4.36-12.71,4.2S160.27,61.49,160.78,60.8Z" fill="#443226"/><path d="M141,60.8c-2.49-3.37-9.13-5.3-16.18-4.36S118,63.29,118,65.15c1.7-4,4.19-6.53,9.17-5.29s10.9,4.36,12.71,4.2S141.49,61.49,141,60.8Z" fill="#443226"/><path d="M145.55,88.35s2.12-2.6,4.7-3,5.72,3,5.68,3.34S148.54,89.39,145.55,88.35Z" fill="#e29a76"/><path d="M138.15,96.66a58.09,58.09,0,0,0,24.76.86c-4.56,9-8.32,12.94-14,12.46S138.73,98.94,138.15,96.66Z" fill="#871a1a"/><path d="M157.45,106.15a11,11,0,0,0-5.34-1.85,14.15,14.15,0,0,0-8.61,2.18c1.6,1.89,3.46,3.33,5.45,3.5C152.25,110.26,154.9,109,157.45,106.15Z" fill="#ce2020"/><path d="M161.73,97.73a59.21,59.21,0,0,1-22.95-.9c1.71,1.74,6.39,4.89,11.14,5.11C155.05,102.18,157.83,101.55,161.73,97.73Z" fill="#f4f4f4"/><path d="M186.58,21.92A20.86,20.86,0,0,0,184.74,16c-6-3.05-12.45-5.8-19.22-5.94A128.18,128.18,0,0,0,144,11.39c-7,1-15.14,1.34-21.49,4.76a94,94,0,0,0-8.68,5.07c-2.07,1.41-3.06,4.05-4.91,5.76-.24.22-.72.77-.49.91-4.92,7.21-5.51,37.26-4.2,39.57,2.06,3.58,3.54,10.27,3.54,10.27l2.07-.07s.68-16.1,1-20.77c.25-4.13,2.66-6.57,12.25-16.63,23.58.4,58-4.21,58-4.21.34,8.68,9.19,19.27,10.66,23s-1,20-1,20l2.68.34s.28-10.15,5-11.94C199,60.74,199.44,25.64,186.58,21.92Z" fill="#775944"/><path d="M124.21,72.72a3.74,3.74,0,0,1,.26-.77,6.47,6.47,0,0,1,1.25-1.77,5.81,5.81,0,0,1,1.16-.92,4.73,4.73,0,0,1,.7-.4,4.06,4.06,0,0,1,.77-.33,9.47,9.47,0,0,1,1.7-.47,13.53,13.53,0,0,1,1.8-.16,10.89,10.89,0,0,1,1.8.12,5.07,5.07,0,0,1,.88.17,7.46,7.46,0,0,1,.84.26,6.85,6.85,0,0,1,1.48.75,5.7,5.7,0,0,1,1.14,1A6.5,6.5,0,0,1,139.18,72a5.39,5.39,0,0,1,.28.76l-.45-.66a7.57,7.57,0,0,0-1.42-1.49,9,9,0,0,0-1.12-.73,9.45,9.45,0,0,0-1.38-.55,8.79,8.79,0,0,0-1.56-.31,13.15,13.15,0,0,0-1.67-.09,13,13,0,0,0-1.66.12,9.7,9.7,0,0,0-1.57.34,5.55,5.55,0,0,0-.72.25,3.69,3.69,0,0,0-.67.3,7.44,7.44,0,0,0-2.6,2.15A5.26,5.26,0,0,0,124.21,72.72Z" fill="#602700"/><path d="M177.52,72.72a5.26,5.26,0,0,0-.43-.67,7.44,7.44,0,0,0-2.6-2.15,3.69,3.69,0,0,0-.67-.3,5.55,5.55,0,0,0-.72-.25,8.74,8.74,0,0,0-1.57-.33,11.38,11.38,0,0,0-1.66-.13,13.15,13.15,0,0,0-1.67.09,8.44,8.44,0,0,0-2.93.86,9.19,9.19,0,0,0-1.13.73,7.57,7.57,0,0,0-1.42,1.49l-.45.66a7.74,7.74,0,0,1,.28-.76,6.67,6.67,0,0,1,1.19-1.82,6.35,6.35,0,0,1,1.14-.94,6.85,6.85,0,0,1,1.48-.75,7.46,7.46,0,0,1,.84-.26,5,5,0,0,1,.89-.17,10.7,10.7,0,0,1,1.79-.12,13.38,13.38,0,0,1,1.8.16,9.25,9.25,0,0,1,1.7.47,4.06,4.06,0,0,1,.77.33,5.42,5.42,0,0,1,.71.4,6,6,0,0,1,1.15.92A6.47,6.47,0,0,1,177.26,72,3.09,3.09,0,0,1,177.52,72.72Z" fill="#602700"/><path d="M105.71,86c-1.71-1.94-.81-3.06,1-5.6.66-1.4-.49-7.82-2.06-8.95-7.22-5.17-5.18,8.41-2.22,15,.53,1.19,4.64,5.54,6,3.19S107.41,87.93,105.71,86Z" fill="#e29a76"/><path d="M194.53,86c1.7-1.94.8-3.06-1-5.6-.66-1.4.49-7.82,2.07-8.95,7.21-5.17,5.17,8.41,2.21,15-.53,1.19-4.64,5.54-5.95,3.19S192.82,87.93,194.53,86Z" fill="#e29a76"/><path d="M185.75,32.05s-7.37,13.86-32.87,12.68S118.29,37,108.17,41.51c.62-2.12,8.25-7.75,11.5-6.87-1.63-1.13-13.13-.92-16.88,3.79-.25-2.67,3-8,6-9.42-3.21.38-11.42,0-14.54-6.61,2.25.63,10.38,1.82,21-6.64,11.21-8.95,26.37-12.87,38.37-8.37-4.12-3.88-10.75-5.13-15-5.38,7.88-3.5,28-3.25,40.25,7.38.5-1.88-3.12-7-8.12-8.88,6.75.88,14.26,8.35,15.08,14.88,1.17-2.13-.33-8.5-1-9.75,2.88,2.75,4.25,11.25,2.5,15.5,1.88-1.75,2.75-5.63,2.75-7.25C191.54,18.76,188.93,28.2,185.75,32.05Z" fill="#443226"/></g></g></svg>